<?xml version="1.0" encoding="UTF-8" standalone="no"?>
<!DOCTYPE svg PUBLIC "-//W3C//DTD SVG 1.1//EN" "http://www.w3.org/Graphics/SVG/1.1/DTD/svg11.dtd">
<!-- Создано Microsoft Visio, экспорт SVG Логотип.svg Страница-1 -->
<svg xmlns="http://www.w3.org/2000/svg" xmlns:xlink="http://www.w3.org/1999/xlink" xmlns:ev="http://www.w3.org/2001/xml-events"
		xmlns:v="http://schemas.microsoft.com/visio/2003/SVGExtensions/" width="0.932141in" height="0.932141in"
		viewBox="0 0 67.1142 67.1142" xml:space="preserve" color-interpolation-filters="sRGB" class="st6">
	<v:documentProperties v:langID="1049" v:metric="true" v:viewMarkup="false"/>

	<style type="text/css">
	<![CDATA[
		.st1 {fill:none;stroke:#e1f5fe;stroke-linecap:round;stroke-linejoin:round;stroke-width:0.5}
		.st2 {fill:none;stroke:#e1f5fe;stroke-linecap:round;stroke-linejoin:round;stroke-width:0.75}
		.st3 {stroke:#e1f5fe;stroke-linecap:round;stroke-linejoin:round;stroke-width:0.75}
		.st4 {fill:#e1f5fe;fill-opacity:0.25;stroke:#e1f5fe;stroke-linecap:round;stroke-linejoin:round;stroke-width:0.75}
		.st5 {fill:#e1f5fe;fill-opacity:0.75;stroke:#e1f5fe;stroke-linecap:round;stroke-linejoin:round;stroke-width:0.75}
		.st6 {fill:none;fill-rule:evenodd;font-size:12px;overflow:visible;stroke-linecap:square;stroke-miterlimit:3}
	]]>
	</style>

	<g v:mID="0" v:index="1" v:groupContext="foregroundPage">
		<title>Страница-1</title>
		<v:pageProperties v:drawingScale="0.0393701" v:pageScale="0.0393701" v:drawingUnits="24" v:shadowOffsetX="8.50394"
				v:shadowOffsetY="-8.50394"/>
		<g id="group2-1" transform="translate(0.25,-0.25)" v:mID="2" v:groupContext="group">
			<title>Лист.2</title>
			<g id="shape3-2" v:mID="3" v:groupContext="shape">
				<title>Лист.3</title>
				<ellipse cx="33.3071" cy="33.8071" rx="33.3071" ry="33.3071" class="st1"/>
			</g>
			<g id="shape4-4" v:mID="4" v:groupContext="shape" transform="translate(5.55118,-5.55118)">
				<title>Лист.4</title>
				<ellipse cx="27.7559" cy="39.3583" rx="27.7559" ry="27.7559" class="st2"/>
			</g>
			<g id="shape5-6" v:mID="5" v:groupContext="shape" transform="translate(27.7559,-27.7559)">
				<title>Лист.5</title>
				<ellipse cx="5.55118" cy="61.563" rx="5.55118" ry="5.55118" class="st2"/>
			</g>
			<g id="shape6-8" v:mID="6" v:groupContext="shape" transform="translate(100.421,0.499998) rotate(90)">
				<title>Лист.6</title>
				<path d="M0 67.11 L66.61 67.11" class="st3"/>
			</g>
			<g id="shape7-11" v:mID="7" v:groupContext="shape" transform="translate(1.9984E-014,-33.3071)">
				<title>Лист.7</title>
				<path d="M0 67.11 L66.61 67.11" class="st3"/>
			</g>
			<g id="shape8-14" v:mID="8" v:groupContext="shape" transform="translate(22.2047,-22.2047)">
				<title>Лист.8</title>
				<ellipse cx="11.1024" cy="56.0118" rx="11.1024" ry="11.1024" class="st1"/>
			</g>
			<g id="shape9-16" v:mID="9" v:groupContext="shape" transform="translate(16.6535,-16.6535)">
				<title>Лист.9</title>
				<ellipse cx="16.6535" cy="50.4606" rx="16.6535" ry="16.6535" class="st2"/>
			</g>
			<g id="shape10-18" v:mID="10" v:groupContext="shape" transform="translate(11.1024,-11.1024)">
				<title>Лист.10</title>
				<ellipse cx="22.2047" cy="44.9094" rx="22.2047" ry="22.2047" class="st1"/>
			</g>
			<g id="shape11-20" v:mID="11" v:groupContext="shape" transform="translate(57.4543,-37.441) rotate(45)">
				<title>Лист.11</title>
				<path d="M0 67.11 L66.61 67.11" class="st3"/>
			</g>
			<g id="shape12-23" v:mID="12" v:groupContext="shape" transform="translate(104.118,57.5167) rotate(135)">
				<title>Лист.12</title>
				<path d="M0 67.11 L66.61 67.11" class="st3"/>
			</g>
			<g id="shape13-26" v:mID="13" v:groupContext="shape" transform="translate(81.7147,-23.239) rotate(66.7517)">
				<title>Лист.13</title>
				<path d="M0 67.11 L66.61 67.11" class="st3"/>
			</g>
			<g id="shape14-29" v:mID="14" v:groupContext="shape" transform="translate(29.4553,-41.1722) rotate(23.3947)">
				<title>Лист.14</title>
				<path d="M0 67.11 L66.61 67.11" class="st3"/>
			</g>
			<g id="shape15-32" v:mID="15" v:groupContext="shape" transform="translate(-24.9615,-13.3291) rotate(-24.6435)">
				<title>Лист.15</title>
				<path d="M0 67.11 L66.61 67.11" class="st3"/>
			</g>
			<g id="shape16-35" v:mID="16" v:groupContext="shape" transform="translate(-41.5346,35.9102) rotate(-65.1954)">
				<title>Лист.16</title>
				<path d="M0 67.11 L66.61 67.11" class="st3"/>
			</g>
			<g id="shape17-38" v:mID="17" v:groupContext="shape" transform="translate(73.3536,-20.0978) rotate(36.565)">
				<title>Частичный слой 3</title>
				<v:userDefs>
					<v:ud v:nameU="ControlX" v:val="VT0(0.39370078740157):24"/>
					<v:ud v:nameU="Scale" v:val="VT0(1):26"/>
					<v:ud v:nameU="AntiScale" v:val="VT0(1):26"/>
					<v:ud v:nameU="visVersion" v:val="VT0(15):26"/>
					<v:ud v:nameU="ControlX" v:prompt="" v:val="VT0(0.078740157480315):6"/>
				</v:userDefs>
				<path d="M5.67 67.11 L22.44 67.11 A22.4379 22.4379 -180 0 0 0 44.68 L0 61.44 A5.66929 5.66929 0 0 1 5.67 67.11 Z"
						class="st4"/>
			</g>
			<g id="shape18-40" v:mID="18" v:groupContext="shape" transform="translate(73.3536,-20.0978) rotate(36.565)">
				<title>Частичный слой 2</title>
				<v:userDefs>
					<v:ud v:nameU="ControlX" v:val="VT0(0.78740157480315):24"/>
					<v:ud v:nameU="Scale" v:val="VT0(1):26"/>
					<v:ud v:nameU="AntiScale" v:val="VT0(1):26"/>
					<v:ud v:nameU="visVersion" v:val="VT0(15):26"/>
					<v:ud v:nameU="ControlX" v:prompt="" v:val="VT0(0.078740157480315):24"/>
				</v:userDefs>
				<path d="M5.67 67.11 L33.1 67.11 A33.1057 33.1057 -180 0 0 -0.01 34.02 L-0 61.44 A5.67111 5.67111 0 0 1 5.67 67.11
							 Z" class="st4"/>
			</g>
			<g id="shape19-42" v:mID="19" v:groupContext="shape" transform="translate(73.3536,-20.0978) rotate(36.565)">
				<title>Частичный слой 4</title>
				<v:userDefs>
					<v:ud v:nameU="visVersion" v:val="VT0(15):26"/>
				</v:userDefs>
				<path d="M0 67.11 L5.67 67.11 A5.66929 5.66929 -180 0 0 0 61.44 L0 67.11 Z" class="st4"/>
			</g>
			<g id="shape20-44" v:mID="20" v:groupContext="shape" transform="translate(59.7307,-37.526)">
				<title>Лист.20</title>
				<ellipse cx="0.666142" cy="66.448" rx="0.666142" ry="0.666142" class="st5"/>
			</g>
			<g id="shape21-46" v:mID="21" v:groupContext="shape" transform="translate(50.6823,-27.7559)">
				<title>Лист.21</title>
				<ellipse cx="2.05394" cy="65.142" rx="2.05394" ry="1.97213" class="st5"/>
			</g>
		</g>
	</g>
</svg>
